<?xml version="1.0" encoding="utf-8" ?><svg xmlns="http://www.w3.org/2000/svg" xmlns:xlink="http://www.w3.org/1999/xlink" width="1024" height="1024" viewBox="0 0 1024 1024"><path fill="#3D405B" transform="scale(2 2)" d="M237.637 57.3117C245.904 57.9264 267.028 104.03 230.435 122.586C212.602 131.926 204.163 136.86 203.977 159.695C212.013 157.385 230.573 156.977 239.258 157.22C237.471 125.355 259.025 133.076 270.339 122.87C277.483 117.409 276.052 96.892 286.017 113.405C294.81 127.978 293.193 143.417 277.743 152.389C275.44 153.726 270.425 156.529 268.405 158.46C299.7 161.413 383.886 173.885 369.757 221.497C386.937 219.69 401.693 217.999 417.585 227.318C435.014 237.539 434.718 258.306 427.277 274.848C412.911 306.787 379.99 328.079 347.195 337.352C340.276 339.307 336.873 338.737 345.251 342.16C362.009 349.006 384.017 358.23 391.092 376.029C398.026 393.472 387.637 406.7 374.586 416.786C365.062 424.14 350.519 430.368 339.048 434.132C278.513 453.994 171.692 455.386 112.272 425.123C92.9893 415.302 71.6738 397.086 84.008 373.613C93.2399 356.045 118.312 345.443 136.314 339.752C123.931 309.067 121.043 285.323 114.172 253.331C107.389 220.055 91.2781 200.452 130.821 178.414C152.462 166.353 172.738 164.28 195.999 159.695C189.663 151.76 184.168 145.77 181.212 135.884C174.678 114.031 187.972 95.7186 208.746 89.4075C242.542 79.1398 227.712 59.6143 237.637 57.3117ZM360.903 254.238C358.227 271.96 355.096 287.532 351.315 304.969C355.754 303.322 359.794 301.441 363.907 299.083C378.299 290.7 395.39 277.737 400.012 260.974C403.615 247.905 394.812 250.356 383.24 250.751C376.465 251.509 367.302 252.345 360.903 254.238Z"/><path fill="#E07A5F" transform="scale(2 2)" d="M114.26 230.356C115.85 231.025 124.287 237.182 127.14 238.862C171.298 264.868 247.569 264.985 295.615 256.716C321.818 252.206 336.896 245.225 358.786 232.225C350.58 273.39 347.906 309.768 328.991 348.591C324.896 356.915 319.298 366.18 313.484 373.455C311.324 376.654 306.714 380.346 304.749 383.458C298.702 393.036 295.056 397.081 283.516 400.664C252.669 410.221 214.802 409.801 185.126 396.422C178.673 393.513 173.248 384.483 168.382 378.969C142.767 349.945 131.22 313.21 124.832 275.718C122.19 260.21 119.296 245.288 114.26 230.356Z"/><path fill="#3D405B" transform="scale(2 2)" d="M152.251 316.546C157.461 316.097 160.079 329.688 162.869 335.319C174.381 358.559 198 377.476 224.26 379.79C226.056 379.948 228.937 384.123 224.697 385.724C192.906 387.562 162.242 354.514 152.362 326.634C151.116 323.117 147.938 318.921 152.251 316.546Z"/><path fill="#3D405B" transform="scale(2 2)" d="M322.129 308.816C332.961 307.396 320.154 327.561 318.251 331.103C306.978 352.077 288.469 372.75 264.879 379.333L264.503 379.371C262.478 379.567 260.549 378.043 260.617 376.157C260.977 372.699 268.069 371.49 270.894 370.224C296.096 358.929 310.779 334.748 320.952 310.301C321.226 309.641 321.611 309.28 322.129 308.816Z"/><path fill="#3D405B" transform="scale(2 2)" d="M141.716 284.524C142.745 284.443 144.08 284.282 144.808 285.175C145.684 286.251 152.844 303.766 148.043 306.93C146.791 307.017 145.196 307.318 144.522 305.994C142.73 302.176 136.971 287.284 141.716 284.524Z"/><path fill="#F4F1DE" transform="scale(2 2)" d="M138.614 345.556C139.24 345.517 141.962 351.273 142.42 352.149C149.716 366.1 171.091 397.845 185.365 403.649C217.383 416.669 257.295 416.468 289.714 404.963C301.172 400.897 302.326 396.738 309.131 388.198C321.459 372.728 328.829 365.162 337.33 345.556C365.58 355.934 411.795 379.503 372.181 410.952C315.731 453.79 159.681 451.616 103.179 412.639C67.1165 387.762 94.9563 362.242 125.654 349.825C129.904 348.106 134.072 346.33 138.614 345.556Z"/><path fill="#FFEFD8" transform="scale(2 2)" d="M125.048 229.44C125.064 196.018 202.611 189.476 225.872 188.378C258.646 186.831 297.726 189.923 327.654 202.74C334.424 205.64 351.588 213.809 351.674 222.879C351.795 235.655 315.945 246.326 306.671 247.836C305.323 247.992 300.828 249.56 298.6 249.925C251.863 257.57 207.39 259.282 160.976 246.14C150.388 243.814 133.135 236.644 125.048 229.44Z"/><path fill="#F2D2C1" transform="scale(2 2)" d="M125.048 229.44C125.064 196.018 202.611 189.476 225.872 188.378C258.646 186.831 297.726 189.923 327.654 202.74C334.424 205.64 351.588 213.809 351.674 222.879C351.795 235.655 315.945 246.326 306.671 247.836C311.626 242.64 315.673 240.924 318.436 233.552C319.179 231.572 319.456 227.808 320.348 226.272C322.719 224.288 322.352 221.836 320.991 219.323C314.899 208.071 307.83 205.653 296.239 205.698C285.721 193.407 232.079 190.646 217.576 191.334C209.407 191.721 179.746 194.003 174.719 199.66C165.821 203.254 158.203 206.719 154.044 216.164C149.973 225.411 154.529 237.302 160.976 244.496L160.976 246.14C150.388 243.814 133.135 236.644 125.048 229.44Z"/><path fill="#FFEFD8" transform="scale(2 2)" d="M174.719 199.66C179.746 194.003 209.407 191.721 217.576 191.334C232.079 190.646 285.721 193.407 296.239 205.698C291.547 205.838 285.214 207.625 280.632 208.948C257.815 215.538 243.758 219.202 221.344 210.071C204.364 203.155 195.424 195.344 174.719 199.66Z"/><path fill="#F2D2C1" transform="scale(2 2)" d="M234.57 198.801C245.194 198.308 250.578 205.57 241.243 207.728C229.93 208.284 224.91 200.645 234.57 198.801Z"/><path fill="#3D405B" transform="scale(2 2)" d="M174.719 199.66C195.424 195.344 204.364 203.155 221.344 210.071C243.758 219.202 257.815 215.538 280.632 208.948C285.214 207.625 291.547 205.838 296.239 205.698C307.83 205.653 314.899 208.071 320.991 219.323C322.352 221.836 322.719 224.288 320.348 226.272L320.015 226.151C313.731 223.811 314.131 213.561 301.712 211.652C280.841 208.445 258.388 230.66 223.715 217.851C206.684 211.559 191.285 198.508 171.818 207.198C152.612 215.77 157.33 227.294 165.848 241.536C164.221 243.8 163.755 244.225 160.976 244.496C154.529 237.302 149.973 225.411 154.044 216.164C158.203 206.719 165.821 203.254 174.719 199.66Z"/><path fill="#F2D2C1" transform="scale(2 2)" d="M294.802 225.32C303.413 226.026 299.603 236.302 286.557 238.466C283.495 238.581 282.51 236.881 281.592 234.275C282.908 228.967 289.956 226.04 294.802 225.32Z"/><path fill="#F2D2C1" transform="scale(2 2)" d="M177.909 226.272C182.392 225.649 199.982 230.745 192.401 237.115C185.671 239.821 171.73 231.557 177.909 226.272Z"/><path fill="#F2D2C1" transform="scale(2 2)" d="M252.967 234.275C254.609 234.169 255.824 234.215 257.465 234.275C265.202 239.561 255.48 243.85 250.12 244.496C241.432 246.666 240.353 237.27 252.967 234.275Z"/><path fill="#F2D2C1" transform="scale(2 2)" d="M212.729 226.272C221.661 226.642 230.772 234.023 219.809 236.216C209.81 236.491 202.305 229.019 212.729 226.272Z"/><path fill="#E07A5F" transform="scale(2 2)" d="M229.974 163.303C233.703 163.273 237.524 163.201 241.243 163.303C245.19 168.65 261.227 187.986 266.213 174.396C265.747 172.826 262.222 165.828 264.277 164.656C266.199 163.56 286.814 166.561 290.787 167.121C312.282 170.153 347.973 180.537 361.418 198.688C368.425 208.148 366.447 219.393 356.948 226.272C359.561 204.299 325.545 194.436 309.11 189.755C294.16 185.497 278.779 184.534 263.439 182.809C259.598 183.093 255.376 182.382 251.51 182.232C220.004 181.015 126.396 184.122 119.005 226.272C109.114 217.459 108.685 205.844 117.624 196.012C140.777 170.543 197.204 164.863 229.974 163.303Z"/><path fill="#E07A5F" transform="scale(2 2)" d="M382.29 226.272C420.24 223.179 438.484 247.257 416.326 282.23C400.903 306.575 371.26 325.689 342.984 332.003L343.926 328.952C345.702 324.954 347.849 316.382 349.23 311.949C373.577 302.134 409.666 281.637 406.574 251.324C405.36 239.422 370.037 245.932 362.599 247.836C362.983 243.522 364.519 231.977 366.224 228.156C371.115 227.791 377.353 226.893 382.29 226.272Z"/><path fill="#FFE390" transform="scale(2 2)" d="M239.258 67.1739C239.803 67.7786 240.531 69.6944 240.92 70.5052C249.451 88.2979 247.327 107.458 228.387 116.918C213.067 124.57 198.482 133.236 198.23 153.084C197.176 151.845 196.188 150.531 195.193 149.243C178.649 128.028 183.259 104.413 209.808 95.1278C228.179 88.7029 233.536 85.7622 239.258 67.1739Z"/><path fill="#FFE390" transform="scale(2 2)" d="M281.592 116.359C282.749 117.462 285.127 126.136 285.368 127.931C288.554 151.635 254.814 146.373 258.739 172.423C257.032 171.465 255.353 170.064 253.866 168.805C246.928 162.931 242.901 154.768 245.968 145.603C250.096 133.269 264.308 135.102 272.993 127.986C277.141 124.587 278.683 120.806 281.592 116.359Z"/></svg>